<svg width="15" height="13" viewBox="0 0 15 13" fill="none" xmlns="http://www.w3.org/2000/svg">
<path d="M13.8483 5.66564L10.4405 8.13595C10.4333 8.14218 10.4279 8.1503 10.425 8.15941C10.4221 8.16851 10.4218 8.17824 10.4241 8.18751L11.7178 12.193C11.7518 12.2967 11.752 12.4085 11.7183 12.5124C11.6847 12.6162 11.619 12.7067 11.5307 12.7708C11.4423 12.8349 11.3359 12.8693 11.2268 12.8691C11.1176 12.8688 11.0114 12.834 10.9233 12.7695L7.52722 10.2922C7.51896 10.2865 7.50915 10.2834 7.49909 10.2834C7.48904 10.2834 7.47922 10.2865 7.47097 10.2922L4.0655 12.7695C3.97718 12.8334 3.87097 12.8678 3.76198 12.8678C3.653 12.8678 3.54678 12.8334 3.45847 12.7695C3.37004 12.7058 3.30421 12.6156 3.27049 12.5119C3.23678 12.4082 3.23695 12.2965 3.27097 12.193L4.57409 8.18751C4.5764 8.17824 4.57609 8.16851 4.5732 8.15941C4.5703 8.1503 4.56493 8.14218 4.55769 8.13595L1.14987 5.66564C1.05979 5.60235 0.992326 5.51189 0.95736 5.40749C0.922394 5.30309 0.921761 5.19025 0.955553 5.08547C0.989345 4.98069 1.05579 4.88947 1.14516 4.82517C1.23453 4.76088 1.34213 4.72687 1.45222 4.72814H5.67097C5.68082 4.72776 5.69034 4.72443 5.69828 4.71858C5.70622 4.71273 5.71222 4.70463 5.7155 4.69533L7.00925 0.689857C7.04316 0.586697 7.10877 0.496874 7.19673 0.433196C7.28469 0.369518 7.3905 0.335236 7.49909 0.335236C7.60768 0.335236 7.7135 0.369518 7.80146 0.433196C7.88942 0.496874 7.95503 0.586697 7.98894 0.689857L9.28972 4.69533C9.293 4.70463 9.299 4.71273 9.30694 4.71858C9.31488 4.72443 9.32439 4.72776 9.33425 4.72814H13.553C13.6631 4.72687 13.7707 4.76088 13.8601 4.82517C13.9494 4.88947 14.0159 4.98069 14.0497 5.08547C14.0835 5.19025 14.0828 5.30309 14.0479 5.40749C14.0129 5.51189 13.9454 5.60235 13.8553 5.66564H13.8483Z" fill="#16C012"/>
</svg>
